<?xml version="1.0" encoding="utf-8"?>
<!-- Generator: Adobe Illustrator 24.1.0, SVG Export Plug-In . SVG Version: 6.00 Build 0)  -->
<svg version="1.1" id="Capa_1" xmlns="http://www.w3.org/2000/svg" xmlns:xlink="http://www.w3.org/1999/xlink" x="0px" y="0px"
	 viewBox="0 0 47 47" style="enable-background:new 0 0 47 47;" xml:space="preserve">
<style type="text/css">
	.st0{fill:#C9553D;}
	.st1{fill:#FFFFFF;}
</style>
<circle class="st0" cx="23.5" cy="23.5" r="23.1"/>
<path class="st1" d="M24.1,11.1c-3.5,0-6.8,1.4-9.1,3.7l-1.9-1.9c-0.8-0.8-2.2-0.2-2.2,0.9V21c0,0.7,0.6,1.3,1.3,1.3h7.2
	c1.1,0,1.7-1.4,0.9-2.2L18,17.8c1.7-1.5,3.8-2.4,6.1-2.4c4.9,0,9.1,4,9.1,9.1c0,4.8-4,8.9-9,8.9c-2.2,0-4.3-0.8-5.9-2.2
	c-0.3-0.2-0.6-0.2-0.9,0l-2.1,2.1c-0.3,0.3-0.2,0.7,0,0.9c2.4,2.1,5.5,3.4,8.9,3.4c7.3,0,13.3-5.9,13.3-13.3
	C37.4,17.1,31.5,11.1,24.1,11.1z"/>
</svg>
